<svg width="37" height="37" viewBox="0 0 37 37" fill="none" xmlns="http://www.w3.org/2000/svg">
<path d="M15 0.5C23.0082 0.5 29.5 6.99188 29.5 15C29.5 18.4638 28.2854 21.6438 26.259 24.1376L36.0606 33.9394C36.6464 34.5252 36.6464 35.4748 36.0606 36.0606C35.5282 36.5932 34.6948 36.6416 34.1076 36.2058L33.9394 36.0606L24.1376 26.259C21.6438 28.2854 18.4638 29.5 15 29.5C6.99188 29.5 0.5 23.0082 0.5 15C0.5 6.99188 6.99188 0.5 15 0.5ZM15 3.5C8.64872 3.5 3.5 8.64872 3.5 15C3.5 21.3512 8.64872 26.5 15 26.5C21.3512 26.5 26.5 21.3512 26.5 15C26.5 8.64872 21.3512 3.5 15 3.5Z" fill="#575757" style="mix-blend-mode:luminosity"/>
<path d="M15 0.5C23.0082 0.5 29.5 6.99188 29.5 15C29.5 18.4638 28.2854 21.6438 26.259 24.1376L36.0606 33.9394C36.6464 34.5252 36.6464 35.4748 36.0606 36.0606C35.5282 36.5932 34.6948 36.6416 34.1076 36.2058L33.9394 36.0606L24.1376 26.259C21.6438 28.2854 18.4638 29.5 15 29.5C6.99188 29.5 0.5 23.0082 0.5 15C0.5 6.99188 6.99188 0.5 15 0.5ZM15 3.5C8.64872 3.5 3.5 8.64872 3.5 15C3.5 21.3512 8.64872 26.5 15 26.5C21.3512 26.5 26.5 21.3512 26.5 15C26.5 8.64872 21.3512 3.5 15 3.5Z" fill="#FF0000" fill-opacity="0.17" style="mix-blend-mode:saturation"/>
</svg>
